<svg width="123" height="123" viewBox="0 0 123 123" fill="none" xmlns="http://www.w3.org/2000/svg">
<path d="M102.5 10.25H20.5C14.8625 10.25 10.25 14.8625 10.25 20.5V102.5C10.25 108.137 14.8625 112.75 20.5 112.75H102.5C108.137 112.75 112.75 108.137 112.75 102.5V20.5C112.75 14.8625 108.137 10.25 102.5 10.25ZM102.5 102.5H20.5V20.5H102.5V102.5ZM92.25 30.75H66.625C60.9875 30.75 56.375 35.3625 56.375 41V52.685C53.3 54.4787 51.25 57.7075 51.25 61.5C51.25 67.1375 55.8625 71.75 61.5 71.75C67.1375 71.75 71.75 67.1375 71.75 61.5C71.75 57.7075 69.7 54.4275 66.625 52.685V41H82V82H41V41H51.25V30.75H30.75V92.25H92.25V30.75Z" fill="#FF4F5A"/>
</svg>
