<svg width="327" height="258" viewBox="0 0 327 258" fill="none" xmlns="http://www.w3.org/2000/svg">
<path d="M240.786 227.234C240.96 219.005 210.657 211.692 173.102 210.899C135.547 210.106 104.962 216.133 104.789 224.361C104.615 232.589 134.918 239.903 172.473 240.696C210.027 241.489 240.612 235.462 240.786 227.234Z" fill="#0071F2"/>
<path opacity="0.7" d="M240.786 227.234C240.96 219.005 210.657 211.692 173.102 210.899C135.547 210.106 104.962 216.133 104.789 224.361C104.615 232.589 134.918 239.903 172.473 240.696C210.027 241.489 240.612 235.462 240.786 227.234Z" fill="white"/>
<path d="M52.0395 158.513C52.0395 158.513 18.8823 127.229 37.1037 85.6914C42.2237 74.1701 50.3019 64.2092 60.5176 56.8205C83.3123 40.1777 140.994 7.247 227.765 19.9661C237.087 21.2999 246.005 24.6507 253.898 29.7849C266.633 38.1384 280.133 53.4859 274.389 79.7813C272.361 89.0751 272.818 98.7693 276.164 107.674C279.48 116.5 285.756 127.312 297.448 139C297.448 139 322.373 163.06 298.124 183.883C292.946 188.287 286.822 191.437 280.228 193.09C250.024 200.824 127.859 226.5 52.0395 158.513Z" fill="#0071F2"/>
<path opacity="0.7" d="M52.0395 158.513C52.0395 158.513 18.8823 127.229 37.1037 85.6914C42.2237 74.1701 50.3019 64.2092 60.5176 56.8205C83.3123 40.1777 140.994 7.247 227.765 19.9661C237.087 21.2999 246.005 24.6507 253.898 29.7849C266.633 38.1384 280.133 53.4859 274.389 79.7813C272.361 89.0751 272.818 98.7693 276.164 107.674C279.48 116.5 285.756 127.312 297.448 139C297.448 139 322.373 163.06 298.124 183.883C292.946 188.287 286.822 191.437 280.228 193.09C250.024 200.824 127.859 226.5 52.0395 158.513Z" fill="white"/>
<path d="M271.591 72.0584C268.964 72.061 266.385 72.7574 264.114 74.077C261.842 75.3967 259.96 77.2928 258.657 79.5736C257.354 81.8543 256.676 84.4388 256.693 87.0655C256.709 89.6922 257.419 92.2679 258.751 94.5321L256.674 100.454L262.301 98.6598C264.164 100.145 266.356 101.162 268.692 101.626C271.029 102.09 273.443 101.987 275.732 101.327C278.021 100.666 280.119 99.4675 281.85 97.8301C283.58 96.1927 284.894 94.1647 285.68 91.9156C286.466 89.6666 286.701 87.262 286.367 84.9031C286.033 82.5442 285.139 80.2996 283.76 78.3571C282.38 76.4147 280.556 74.8309 278.439 73.7383C276.321 72.6458 273.973 72.0762 271.591 72.0773V72.0584Z" fill="#0071F2"/>
<path d="M131.126 135.597H118.486V210.163H131.126V135.597Z" fill="#0071F2"/>
<path opacity="0.2" d="M131.126 135.597H118.486V210.163H131.126V135.597Z" fill="black"/>
<path d="M169.461 135.597H131.126V210.163H169.461V135.597Z" fill="#0071F2"/>
<path d="M132.81 210.163H116.802V216.481H132.81V210.163Z" fill="#0071F2"/>
<path opacity="0.3" d="M132.81 210.163H116.802V216.481H132.81V210.163Z" fill="black"/>
<path d="M170.726 210.163H132.81V216.481H170.726V210.163Z" fill="#0071F2"/>
<path opacity="0.2" d="M170.726 210.163H132.81V216.481H170.726V210.163Z" fill="black"/>
<path opacity="0.4" d="M150.295 208.056C151.109 208.056 151.768 207.397 151.768 206.583C151.768 205.77 151.109 205.11 150.295 205.11C149.482 205.11 148.822 205.77 148.822 206.583C148.822 207.397 149.482 208.056 150.295 208.056Z" fill="white"/>
<path opacity="0.4" d="M165.669 182.78H134.917V203.003H165.669V182.78Z" fill="white"/>
<g opacity="0.4">
<path d="M160.291 182.78H159.868V203.003H160.291V182.78Z" fill="white"/>
</g>
<g opacity="0.4">
<path d="M138.078 185.73H137.655V195.907H138.078V185.73Z" fill="white"/>
</g>
<g opacity="0.4">
<path d="M141.028 185.73H140.605V195.907H141.028V185.73Z" fill="white"/>
</g>
<g opacity="0.4">
<path d="M143.554 185.73H143.131V195.907H143.554V185.73Z" fill="white"/>
</g>
<g opacity="0.4">
<path d="M146.504 185.73H146.081V195.907H146.504V185.73Z" fill="white"/>
</g>
<g opacity="0.4">
<path d="M149.03 185.73H148.607V195.907H149.03V185.73Z" fill="white"/>
</g>
<g opacity="0.4">
<path d="M151.979 185.73H151.557V195.907H151.979V185.73Z" fill="white"/>
</g>
<g opacity="0.4">
<path d="M154.51 185.73H154.087V195.907H154.51V185.73Z" fill="white"/>
</g>
<g opacity="0.4">
<path d="M157.455 185.73H157.032V195.907H157.455V185.73Z" fill="white"/>
</g>
<path opacity="0.4" d="M157.667 197.946H137.867V200.473H157.667V197.946Z" fill="white"/>
<path opacity="0.41" d="M162.931 193.736C163.513 193.736 163.985 193.264 163.985 192.682C163.985 192.1 163.513 191.628 162.931 191.628C162.349 191.628 161.878 192.1 161.878 192.682C161.878 193.264 162.349 193.736 162.931 193.736Z" fill="white"/>
<path opacity="0.41" d="M162.931 199.631C163.513 199.631 163.985 199.159 163.985 198.577C163.985 197.995 163.513 197.523 162.931 197.523C162.349 197.523 161.878 197.995 161.878 198.577C161.878 199.159 162.349 199.631 162.931 199.631Z" fill="white"/>
<path opacity="0.41" d="M162.931 187.837C163.513 187.837 163.985 187.365 163.985 186.783C163.985 186.201 163.513 185.73 162.931 185.73C162.349 185.73 161.878 186.201 161.878 186.783C161.878 187.365 162.349 187.837 162.931 187.837Z" fill="white"/>
<path opacity="0.4" d="M165.669 168.879H134.917V178.569H165.669V168.879Z" fill="white"/>
<path opacity="0.4" d="M138.709 170.563H137.025V176.881H138.709V170.563Z" fill="white"/>
<path opacity="0.4" d="M148.399 170.563H140.393V172.671H148.399V170.563Z" fill="white"/>
<path opacity="0.4" d="M148.399 174.778H140.393V176.885H148.399V174.778Z" fill="white"/>
<g opacity="0.4">
<path d="M163.985 170.775H152.191V171.198H163.985V170.775Z" fill="white"/>
</g>
<g opacity="0.4">
<path d="M163.985 172.459H152.191V172.882H163.985V172.459Z" fill="white"/>
</g>
<path opacity="0.4" d="M165.669 154.978H134.917V164.668H165.669V154.978Z" fill="white"/>
<path opacity="0.4" d="M138.709 156.662H137.025V162.98H138.709V156.662Z" fill="white"/>
<path opacity="0.4" d="M148.399 156.662H140.393V158.77H148.399V156.662Z" fill="white"/>
<path opacity="0.4" d="M148.399 160.873H140.393V162.98H148.399V160.873Z" fill="white"/>
<g opacity="0.4">
<path d="M163.985 156.874H152.191V157.297H163.985V156.874Z" fill="white"/>
</g>
<g opacity="0.4">
<path d="M163.985 158.558H152.191V158.981H163.985V158.558Z" fill="white"/>
</g>
<path opacity="0.4" d="M165.669 141.073H134.917V150.763H165.669V141.073Z" fill="white"/>
<path opacity="0.4" d="M138.709 142.761H137.025V149.079H138.709V142.761Z" fill="white"/>
<path opacity="0.4" d="M148.399 142.761H140.393V144.868H148.399V142.761Z" fill="white"/>
<path opacity="0.4" d="M148.399 146.972H140.393V149.079H148.399V146.972Z" fill="white"/>
<g opacity="0.4">
<path d="M163.985 142.969H152.191V143.392H163.985V142.969Z" fill="white"/>
</g>
<g opacity="0.4">
<path d="M163.985 144.657H152.191V145.08H163.985V144.657Z" fill="white"/>
</g>
<path opacity="0.4" d="M157.878 149.079C158.46 149.079 158.932 148.607 158.932 148.026C158.932 147.444 158.46 146.972 157.878 146.972C157.296 146.972 156.825 147.444 156.825 148.026C156.825 148.607 157.296 149.079 157.878 149.079Z" fill="white"/>
<path opacity="0.4" d="M162.512 149.079C163.094 149.079 163.566 148.607 163.566 148.026C163.566 147.444 163.094 146.972 162.512 146.972C161.93 146.972 161.458 147.444 161.458 148.026C161.458 148.607 161.93 149.079 162.512 149.079Z" fill="white"/>
<path opacity="0.4" d="M153.241 149.079C153.823 149.079 154.294 148.607 154.294 148.026C154.294 147.444 153.823 146.972 153.241 146.972C152.659 146.972 152.187 147.444 152.187 148.026C152.187 148.607 152.659 149.079 153.241 149.079Z" fill="white"/>
<path opacity="0.4" d="M157.878 162.98C158.46 162.98 158.932 162.509 158.932 161.927C158.932 161.345 158.46 160.873 157.878 160.873C157.296 160.873 156.825 161.345 156.825 161.927C156.825 162.509 157.296 162.98 157.878 162.98Z" fill="white"/>
<path opacity="0.4" d="M162.512 162.98C163.094 162.98 163.566 162.509 163.566 161.927C163.566 161.345 163.094 160.873 162.512 160.873C161.93 160.873 161.458 161.345 161.458 161.927C161.458 162.509 161.93 162.98 162.512 162.98Z" fill="white"/>
<path opacity="0.4" d="M153.241 162.98C153.823 162.98 154.294 162.509 154.294 161.927C154.294 161.345 153.823 160.873 153.241 160.873C152.659 160.873 152.187 161.345 152.187 161.927C152.187 162.509 152.659 162.98 153.241 162.98Z" fill="white"/>
<path opacity="0.4" d="M157.878 176.885C158.46 176.885 158.932 176.413 158.932 175.832C158.932 175.25 158.46 174.778 157.878 174.778C157.296 174.778 156.825 175.25 156.825 175.832C156.825 176.413 157.296 176.885 157.878 176.885Z" fill="white"/>
<path opacity="0.4" d="M162.512 176.885C163.094 176.885 163.566 176.413 163.566 175.832C163.566 175.25 163.094 174.778 162.512 174.778C161.93 174.778 161.458 175.25 161.458 175.832C161.458 176.413 161.93 176.885 162.512 176.885Z" fill="white"/>
<path opacity="0.4" d="M153.241 176.885C153.823 176.885 154.294 176.413 154.294 175.832C154.294 175.25 153.823 174.778 153.241 174.778C152.659 174.778 152.187 175.25 152.187 175.832C152.187 176.413 152.659 176.885 153.241 176.885Z" fill="white"/>
<path d="M79.7435 122.146H64.3545V208.902H79.7435V122.146Z" fill="#0071F2"/>
<path opacity="0.2" d="M79.7435 122.146H64.3545V208.902H79.7435V122.146Z" fill="black"/>
<path d="M79.7435 122.146L124.385 122.119V208.898H79.7435V122.146Z" fill="#0071F2"/>
<path d="M125.65 208.902H81.4165V216.485H125.65V208.902Z" fill="#0071F2"/>
<path opacity="0.2" d="M125.65 208.902H81.4165V216.485H125.65V208.902Z" fill="black"/>
<path d="M81.5903 208.925H64.3168V216.508H81.5903V208.925Z" fill="#0071F2"/>
<path opacity="0.3" d="M81.5903 208.925H64.3168V216.508H81.5903V208.925Z" fill="black"/>
<path opacity="0.4" d="M120.136 127.467H83.9052V139.623H120.136V127.467Z" fill="white"/>
<path opacity="0.4" d="M120.136 143.898H83.9052V156.054H120.136V143.898Z" fill="white"/>
<path opacity="0.4" d="M88.3726 146.013H86.3862V153.939H88.3726V146.013Z" fill="white"/>
<path opacity="0.4" d="M99.7889 146.013H90.3591V148.656H99.7889V146.013Z" fill="white"/>
<path opacity="0.4" d="M99.7889 151.296H90.3591V153.939H99.7889V151.296Z" fill="white"/>
<g opacity="0.4">
<path d="M118.15 146.33H104.253V146.753H118.15V146.33Z" fill="white"/>
</g>
<g opacity="0.4">
<path d="M118.15 148.445H104.253V148.868H118.15V148.445Z" fill="white"/>
</g>
<path opacity="0.4" d="M120.136 160.329H83.9052V172.486H120.136V160.329Z" fill="white"/>
<path opacity="0.4" d="M88.3726 162.44H86.3862V170.367H88.3726V162.44Z" fill="white"/>
<path opacity="0.4" d="M99.7889 162.44H90.3591V165.084H99.7889V162.44Z" fill="white"/>
<path opacity="0.4" d="M99.7889 167.727H90.3591V170.371H99.7889V167.727Z" fill="white"/>
<g opacity="0.4">
<path d="M118.15 162.761H104.253V163.184H118.15V162.761Z" fill="white"/>
</g>
<g opacity="0.4">
<path d="M118.15 164.872H104.253V165.295H118.15V164.872Z" fill="white"/>
</g>
<path opacity="0.4" d="M119.713 177.448H83.9052V200.288H119.713V177.448Z" fill="white"/>
<g opacity="0.4">
<path d="M113.414 177.448H112.991V200.288H113.414V177.448Z" fill="white"/>
</g>
<g opacity="0.4">
<path d="M87.5532 180.779H87.1302V192.274H87.5532V180.779Z" fill="white"/>
</g>
<g opacity="0.4">
<path d="M90.9859 180.779H90.563V192.274H90.9859V180.779Z" fill="white"/>
</g>
<g opacity="0.4">
<path d="M93.9278 180.779H93.5049V192.274H93.9278V180.779Z" fill="white"/>
</g>
<g opacity="0.4">
<path d="M97.3607 180.779H96.9377V192.274H97.3607V180.779Z" fill="white"/>
</g>
<g opacity="0.4">
<path d="M100.306 180.779H99.8833V192.274H100.306V180.779Z" fill="white"/>
</g>
<g opacity="0.4">
<path d="M103.739 180.779H103.316V192.274H103.739V180.779Z" fill="white"/>
</g>
<g opacity="0.4">
<path d="M106.681 180.779H106.258V192.274H106.681V180.779Z" fill="white"/>
</g>
<g opacity="0.4">
<path d="M110.118 180.779H109.695V192.274H110.118V180.779Z" fill="white"/>
</g>
<path opacity="0.4" d="M110.393 194.578H87.338V197.433H110.393V194.578Z" fill="white"/>
<path opacity="0.4" d="M116.526 189.82C117.204 189.82 117.754 189.287 117.754 188.63C117.754 187.973 117.204 187.44 116.526 187.44C115.848 187.44 115.299 187.973 115.299 188.63C115.299 189.287 115.848 189.82 116.526 189.82Z" fill="white"/>
<path opacity="0.4" d="M116.526 196.481C117.204 196.481 117.754 195.949 117.754 195.292C117.754 194.635 117.204 194.102 116.526 194.102C115.848 194.102 115.299 194.635 115.299 195.292C115.299 195.949 115.848 196.481 116.526 196.481Z" fill="white"/>
<path opacity="0.4" d="M116.526 183.158C117.204 183.158 117.754 182.625 117.754 181.968C117.754 181.311 117.204 180.779 116.526 180.779C115.848 180.779 115.299 181.311 115.299 181.968C115.299 182.625 115.848 183.158 116.526 183.158Z" fill="white"/>
<path opacity="0.4" d="M102.021 206.817C103.068 206.817 103.917 205.969 103.917 204.922C103.917 203.875 103.068 203.026 102.021 203.026C100.974 203.026 100.125 203.875 100.125 204.922C100.125 205.969 100.974 206.817 102.021 206.817Z" fill="white"/>
<path d="M32.5492 135.597H19.9094V210.163H32.5492V135.597Z" fill="#0071F2"/>
<path opacity="0.2" d="M32.5492 135.597H19.9094V210.163H32.5492V135.597Z" fill="black"/>
<path d="M70.8801 135.597H32.5454V210.163H70.8801V135.597Z" fill="#0071F2"/>
<path d="M34.2335 210.163H18.2251V216.481H34.2335V210.163Z" fill="#0071F2"/>
<path opacity="0.3" d="M34.2335 210.163H18.2251V216.481H34.2335V210.163Z" fill="black"/>
<path d="M72.1491 210.163H34.2335V216.481H72.1491V210.163Z" fill="#0071F2"/>
<path opacity="0.2" d="M72.1491 210.163H34.2335V216.481H72.1491V210.163Z" fill="black"/>
<path opacity="0.4" d="M51.7148 208.056C52.5282 208.056 53.1876 207.397 53.1876 206.583C53.1876 205.77 52.5282 205.11 51.7148 205.11C50.9013 205.11 50.2419 205.77 50.2419 206.583C50.2419 207.397 50.9013 208.056 51.7148 208.056Z" fill="white"/>
<path opacity="0.4" d="M67.0887 182.78H36.337V203.003H67.0887V182.78Z" fill="white"/>
<g opacity="0.4">
<path d="M61.7109 182.78H61.288V203.003H61.7109V182.78Z" fill="white"/>
</g>
<g opacity="0.4">
<path d="M39.5017 185.73H39.0787V195.907H39.5017V185.73Z" fill="white"/>
</g>
<g opacity="0.4">
<path d="M42.4473 185.73H42.0243V195.907H42.4473V185.73Z" fill="white"/>
</g>
<g opacity="0.4">
<path d="M44.9775 185.73H44.5546V195.907H44.9775V185.73Z" fill="white"/>
</g>
<g opacity="0.4">
<path d="M47.9269 185.73H47.5039V195.907H47.9269V185.73Z" fill="white"/>
</g>
<g opacity="0.4">
<path d="M50.4534 185.73H50.0304V195.907H50.4534V185.73Z" fill="white"/>
</g>
<g opacity="0.4">
<path d="M53.4028 185.73H52.9799V195.907H53.4028V185.73Z" fill="white"/>
</g>
<g opacity="0.4">
<path d="M55.9292 185.73H55.5062V195.907H55.9292V185.73Z" fill="white"/>
</g>
<g opacity="0.4">
<path d="M58.8787 185.73H58.4557V195.907H58.8787V185.73Z" fill="white"/>
</g>
<path opacity="0.4" d="M59.0863 197.946H39.2864V200.473H59.0863V197.946Z" fill="white"/>
<path opacity="0.41" d="M64.3545 193.736C64.9364 193.736 65.4082 193.264 65.4082 192.682C65.4082 192.1 64.9364 191.628 64.3545 191.628C63.7726 191.628 63.3009 192.1 63.3009 192.682C63.3009 193.264 63.7726 193.736 64.3545 193.736Z" fill="white"/>
<path opacity="0.41" d="M64.3545 199.631C64.9364 199.631 65.4082 199.159 65.4082 198.577C65.4082 197.995 64.9364 197.523 64.3545 197.523C63.7726 197.523 63.3009 197.995 63.3009 198.577C63.3009 199.159 63.7726 199.631 64.3545 199.631Z" fill="white"/>
<path opacity="0.41" d="M64.3545 187.837C64.9364 187.837 65.4082 187.365 65.4082 186.783C65.4082 186.201 64.9364 185.73 64.3545 185.73C63.7726 185.73 63.3009 186.201 63.3009 186.783C63.3009 187.365 63.7726 187.837 64.3545 187.837Z" fill="white"/>
<path opacity="0.4" d="M67.0887 168.879H36.337V178.569H67.0887V168.879Z" fill="white"/>
<path opacity="0.4" d="M40.1285 170.563H38.4442V176.881H40.1285V170.563Z" fill="white"/>
<path opacity="0.4" d="M49.8227 170.563H41.8167V172.671H49.8227V170.563Z" fill="white"/>
<path opacity="0.4" d="M49.8227 174.778H41.8167V176.885H49.8227V174.778Z" fill="white"/>
<g opacity="0.4">
<path d="M65.4043 170.775H53.6105V171.198H65.4043V170.775Z" fill="white"/>
</g>
<g opacity="0.4">
<path d="M65.4043 172.459H53.6105V172.882H65.4043V172.459Z" fill="white"/>
</g>
<path opacity="0.4" d="M67.0887 154.978H36.337V164.668H67.0887V154.978Z" fill="white"/>
<path opacity="0.4" d="M40.1285 156.662H38.4442V162.98H40.1285V156.662Z" fill="white"/>
<path opacity="0.4" d="M49.8227 156.662H41.8167V158.77H49.8227V156.662Z" fill="white"/>
<path opacity="0.4" d="M49.8227 160.873H41.8167V162.98H49.8227V160.873Z" fill="white"/>
<g opacity="0.4">
<path d="M65.4043 156.874H53.6105V157.297H65.4043V156.874Z" fill="white"/>
</g>
<g opacity="0.4">
<path d="M65.4043 158.558H53.6105V158.981H65.4043V158.558Z" fill="white"/>
</g>
<path opacity="0.4" d="M67.0887 141.073H36.337V150.763H67.0887V141.073Z" fill="white"/>
<path opacity="0.4" d="M40.1285 142.761H38.4442V149.079H40.1285V142.761Z" fill="white"/>
<path opacity="0.4" d="M49.8227 142.761H41.8167V144.868H49.8227V142.761Z" fill="white"/>
<path opacity="0.4" d="M49.8227 146.972H41.8167V149.079H49.8227V146.972Z" fill="white"/>
<g opacity="0.4">
<path d="M65.4043 142.969H53.6105V143.392H65.4043V142.969Z" fill="white"/>
</g>
<g opacity="0.4">
<path d="M65.4043 144.657H53.6105V145.08H65.4043V144.657Z" fill="white"/>
</g>
<path opacity="0.4" d="M59.2978 149.079C59.8797 149.079 60.3514 148.607 60.3514 148.026C60.3514 147.444 59.8797 146.972 59.2978 146.972C58.7159 146.972 58.2441 147.444 58.2441 148.026C58.2441 148.607 58.7159 149.079 59.2978 149.079Z" fill="white"/>
<path opacity="0.4" d="M63.9316 149.079C64.5135 149.079 64.9852 148.607 64.9852 148.026C64.9852 147.444 64.5135 146.972 63.9316 146.972C63.3497 146.972 62.8779 147.444 62.8779 148.026C62.8779 148.607 63.3497 149.079 63.9316 149.079Z" fill="white"/>
<path opacity="0.4" d="M54.6641 149.079C55.246 149.079 55.7177 148.607 55.7177 148.026C55.7177 147.444 55.246 146.972 54.6641 146.972C54.0822 146.972 53.6105 147.444 53.6105 148.026C53.6105 148.607 54.0822 149.079 54.6641 149.079Z" fill="white"/>
<path opacity="0.4" d="M59.2978 162.98C59.8797 162.98 60.3514 162.509 60.3514 161.927C60.3514 161.345 59.8797 160.873 59.2978 160.873C58.7159 160.873 58.2441 161.345 58.2441 161.927C58.2441 162.509 58.7159 162.98 59.2978 162.98Z" fill="white"/>
<path opacity="0.4" d="M63.9316 162.98C64.5135 162.98 64.9852 162.509 64.9852 161.927C64.9852 161.345 64.5135 160.873 63.9316 160.873C63.3497 160.873 62.8779 161.345 62.8779 161.927C62.8779 162.509 63.3497 162.98 63.9316 162.98Z" fill="white"/>
<path opacity="0.4" d="M54.6641 162.98C55.246 162.98 55.7177 162.509 55.7177 161.927C55.7177 161.345 55.246 160.873 54.6641 160.873C54.0822 160.873 53.6105 161.345 53.6105 161.927C53.6105 162.509 54.0822 162.98 54.6641 162.98Z" fill="white"/>
<path opacity="0.4" d="M59.2978 176.885C59.8797 176.885 60.3514 176.413 60.3514 175.832C60.3514 175.25 59.8797 174.778 59.2978 174.778C58.7159 174.778 58.2441 175.25 58.2441 175.832C58.2441 176.413 58.7159 176.885 59.2978 176.885Z" fill="white"/>
<path opacity="0.4" d="M63.9316 176.885C64.5135 176.885 64.9852 176.413 64.9852 175.832C64.9852 175.25 64.5135 174.778 63.9316 174.778C63.3497 174.778 62.8779 175.25 62.8779 175.832C62.8779 176.413 63.3497 176.885 63.9316 176.885Z" fill="white"/>
<path opacity="0.4" d="M54.6641 176.885C55.246 176.885 55.7177 176.413 55.7177 175.832C55.7177 175.25 55.246 174.778 54.6641 174.778C54.0822 174.778 53.6105 175.25 53.6105 175.832C53.6105 176.413 54.0822 176.885 54.6641 176.885Z" fill="white"/>
<path opacity="0.4" d="M110.952 137.512C111.638 137.512 112.194 136.92 112.194 136.19C112.194 135.46 111.638 134.868 110.952 134.868C110.266 134.868 109.71 135.46 109.71 136.19C109.71 136.92 110.266 137.512 110.952 137.512Z" fill="white"/>
<path opacity="0.4" d="M116.413 137.512C117.099 137.512 117.655 136.92 117.655 136.19C117.655 135.46 117.099 134.868 116.413 134.868C115.727 134.868 115.17 135.46 115.17 136.19C115.17 136.92 115.727 137.512 116.413 137.512Z" fill="white"/>
<path opacity="0.4" d="M105.495 137.512C106.181 137.512 106.738 136.92 106.738 136.19C106.738 135.46 106.181 134.868 105.495 134.868C104.809 134.868 104.253 135.46 104.253 136.19C104.253 136.92 104.809 137.512 105.495 137.512Z" fill="white"/>
<path opacity="0.4" d="M88.3726 129.581H86.3862V137.508H88.3726V129.581Z" fill="white"/>
<path opacity="0.4" d="M99.7889 129.581H90.3591V132.225H99.7889V129.581Z" fill="white"/>
<path opacity="0.4" d="M99.7889 134.868H90.3591V137.512H99.7889V134.868Z" fill="white"/>
<g opacity="0.4">
<path d="M118.15 129.899H104.253V130.322H118.15V129.899Z" fill="white"/>
</g>
<g opacity="0.4">
<path d="M118.15 132.013H104.253V132.436H118.15V132.013Z" fill="white"/>
</g>
<path opacity="0.4" d="M110.952 153.939C111.638 153.939 112.194 153.348 112.194 152.618C112.194 151.888 111.638 151.296 110.952 151.296C110.266 151.296 109.71 151.888 109.71 152.618C109.71 153.348 110.266 153.939 110.952 153.939Z" fill="white"/>
<path opacity="0.4" d="M116.413 153.939C117.099 153.939 117.655 153.348 117.655 152.618C117.655 151.888 117.099 151.296 116.413 151.296C115.727 151.296 115.17 151.888 115.17 152.618C115.17 153.348 115.727 153.939 116.413 153.939Z" fill="white"/>
<path opacity="0.4" d="M105.495 153.939C106.181 153.939 106.738 153.348 106.738 152.618C106.738 151.888 106.181 151.296 105.495 151.296C104.809 151.296 104.253 151.888 104.253 152.618C104.253 153.348 104.809 153.939 105.495 153.939Z" fill="white"/>
<path opacity="0.4" d="M110.952 170.371C111.638 170.371 112.194 169.779 112.194 169.049C112.194 168.319 111.638 167.727 110.952 167.727C110.266 167.727 109.71 168.319 109.71 169.049C109.71 169.779 110.266 170.371 110.952 170.371Z" fill="white"/>
<path opacity="0.4" d="M116.413 170.371C117.099 170.371 117.655 169.779 117.655 169.049C117.655 168.319 117.099 167.727 116.413 167.727C115.727 167.727 115.17 168.319 115.17 169.049C115.17 169.779 115.727 170.371 116.413 170.371Z" fill="white"/>
<path opacity="0.4" d="M105.495 170.371C106.181 170.371 106.738 169.779 106.738 169.049C106.738 168.319 106.181 167.727 105.495 167.727C104.809 167.727 104.253 168.319 104.253 169.049C104.253 169.779 104.809 170.371 105.495 170.371Z" fill="white"/>
<path d="M283.676 87.1642C283.676 93.3161 278.517 98.3048 272.157 98.3048C270.223 98.3166 268.317 97.8442 266.611 96.9306C264.906 96.0171 263.457 94.6914 262.395 93.0744C261.249 91.3166 260.638 89.263 260.639 87.1642C260.639 81.0124 265.798 76.0237 272.157 76.0237C275.17 76.0115 278.071 77.1643 280.254 79.2413C281.333 80.2601 282.193 81.4881 282.781 82.8503C283.369 84.2126 283.674 85.6804 283.676 87.1642V87.1642Z" fill="white"/>
<path opacity="0.1" d="M283.676 87.1642C283.676 93.3161 278.517 98.3048 272.157 98.3048C270.223 98.3166 268.316 97.8442 266.611 96.9306C264.906 96.0171 263.457 94.6914 262.395 93.0744C262.395 93.0744 270.352 99.1771 277.769 93.0744C277.769 93.0744 283.253 88.8825 280.254 79.245C281.332 80.2634 282.192 81.4908 282.78 82.8524C283.368 84.2139 283.673 85.6811 283.676 87.1642V87.1642Z" fill="black"/>
<path d="M265.549 82.066C265.549 82.066 269.703 81.4165 272.157 78.9089C274.002 80.2249 276.015 81.2867 278.143 82.066C278.143 82.066 279.899 90.159 272.157 94.6076C272.157 94.6076 264.793 91.1295 265.549 82.066Z" fill="#0071F2"/>
<path d="M273.479 85.4648C273.48 85.1967 273.41 84.9331 273.275 84.7011C273.141 84.469 272.947 84.277 272.714 84.1447C272.481 84.0124 272.216 83.9446 271.948 83.9482C271.68 83.9518 271.418 84.0267 271.188 84.1653C270.959 84.3038 270.77 84.501 270.642 84.7365C270.514 84.9721 270.45 85.2375 270.459 85.5055C270.467 85.7736 270.547 86.0346 270.689 86.2617C270.832 86.4888 271.032 86.6739 271.27 86.7979L270.458 89.347H273.479L272.765 86.7413C272.983 86.6064 273.162 86.4185 273.287 86.1952C273.412 85.9719 273.478 85.7206 273.479 85.4648Z" fill="white"/>
<path d="M266.187 148.694H264.159V162.882H266.187V148.694Z" fill="#999999"/>
<path d="M245.666 176.096V218.49H248.551L250.209 173.981L245.666 176.096Z" fill="#CCCCCC"/>
<path d="M263.347 167.75V211.938H266.236L267.807 165.722L263.347 167.75Z" fill="#CCCCCC"/>
<path d="M246.927 173.048L271.455 162.074L260.379 160.152L247.599 154.668L246.927 173.048Z" fill="#CCCCCC"/>
<path d="M242.361 177.633L271.44 164.102V162.074L246.912 173.044C246.912 173.044 244.072 176.164 242.361 177.633Z" fill="#B3B3B3"/>
<path d="M256.455 111.806H271.761C272.217 111.806 272.654 111.987 272.976 112.309C273.298 112.631 273.479 113.068 273.479 113.524V138.973H256.455V111.806Z" fill="#999999"/>
<path d="M163.218 147.886H158.758V226.53H163.218V147.886Z" fill="#999999"/>
<path opacity="0.1" d="M163.218 147.886H161.19V226.53H163.218V147.886Z" fill="black"/>
<path d="M177.002 148.086H172.542V213.15H177.002V148.086Z" fill="#999999"/>
<path opacity="0.1" d="M177.002 148.086H174.974V213.15H177.002V148.086Z" fill="black"/>
<path d="M274.295 147.886H269.835V226.53H274.295V147.886Z" fill="#999999"/>
<path opacity="0.1" d="M274.295 147.886H272.267V226.53H274.295V147.886Z" fill="black"/>
<path d="M285.643 142.818H281.183V213.154H285.643V142.818Z" fill="#999999"/>
<path opacity="0.1" d="M285.643 142.818H283.615V213.154H285.643V142.818Z" fill="black"/>
<path d="M254.431 111.806H269.737C270.192 111.806 270.63 111.987 270.952 112.309C271.274 112.631 271.455 113.068 271.455 113.524V138.973H254.431V111.806Z" fill="#B3B3B3"/>
<path d="M153.894 146.67L174.812 136.137H291.734L277.943 146.67H153.894Z" fill="#CCCCCC"/>
<path d="M199.295 220.45L187.021 230.05C187.021 230.05 181.866 234.638 186.323 237.475C186.323 237.475 192.81 241.53 198.079 234.638L205.397 222.69L199.295 220.45Z" fill="#0071F2"/>
<path opacity="0.2" d="M185.514 234.234C188.554 237.509 193.282 236.825 196.258 233.857C197.656 232.429 198.902 230.711 200.231 229.212C201.394 227.845 203.067 225.896 204.253 224.574C203.192 225.987 201.587 228.007 200.477 229.412C199.189 230.968 197.935 232.682 196.542 234.147C193.441 237.21 188.441 237.879 185.518 234.249L185.514 234.234Z" fill="black"/>
<path opacity="0.2" d="M188.067 229.555C190.499 229.521 193.094 230.469 194.619 232.437C195.12 233.09 195.477 233.842 195.669 234.642L195.39 234.106C195.308 233.923 195.206 233.75 195.088 233.589C193.577 231.172 190.767 230.035 188.067 229.555V229.555Z" fill="black"/>
<path opacity="0.2" d="M190.782 228.15C192.606 227.905 195.208 228.502 195.65 230.567C194.665 228.826 192.595 228.524 190.782 228.15V228.15Z" fill="black"/>
<path opacity="0.2" d="M192.406 226.53C194.227 226.285 196.832 226.882 197.274 228.947C196.289 227.206 194.215 226.904 192.406 226.53Z" fill="black"/>
<path opacity="0.2" d="M195.646 224.098C197.471 223.853 200.072 224.45 200.518 226.511C199.529 224.774 197.459 224.472 195.646 224.098Z" fill="black"/>
<path d="M202.338 214.57L199.295 220.45C199.295 220.45 198.041 221.961 199.77 222.897C200.242 223.149 200.769 223.278 201.304 223.275H204.306C204.523 223.275 204.737 223.224 204.93 223.124C205.123 223.025 205.29 222.881 205.416 222.705L209.102 217.561C209.102 217.561 203.928 215.567 202.338 214.57Z" fill="#F9B499"/>
<path d="M201.644 201.795L202.973 205.813L204.989 200.069L201.644 201.795Z" fill="#F9B499"/>
<path d="M262.992 134.638C262.992 137.75 260.915 137.75 260.915 137.75L255.25 139.778C252.724 140.62 251.685 140.491 251.281 140.329C251.198 140.298 251.11 140.285 251.022 140.292C250.933 140.299 250.848 140.326 250.771 140.371C250.761 140.379 250.75 140.386 250.737 140.39C250.301 140.696 249.812 140.92 249.295 141.05V141.05C248.207 141.269 248.358 140.178 248.358 140.178C248.398 139.986 248.425 139.792 248.437 139.596C248.463 138.857 248.269 138.126 247.879 137.496C247.489 136.867 246.921 136.368 246.247 136.062C245.668 135.791 245.063 135.577 244.442 135.424C244.061 135.329 243.663 135.329 243.283 135.424L240.137 136.145H224.321L209.827 135.729C208.48 127.184 210.162 118.437 214.582 111.001C215.551 109.337 216.666 107.761 217.912 106.292C218.184 105.975 218.343 105.812 218.343 105.812L219.238 104.517C219.238 104.517 231.323 105.325 231.459 104.921C231.595 104.517 239.827 99.6341 239.827 99.6341L251.444 104.543C251.96 104.771 252.422 105.106 252.799 105.525C255.296 108.108 257.259 114.272 257.259 114.272L262.546 131.704C262.819 132.659 262.968 133.645 262.992 134.638V134.638Z" fill="#0071F2"/>
<path d="M249.782 124.287C249.782 124.287 238.177 126.175 229.487 124.37C229.264 124.325 229.045 124.268 228.826 124.207C225.411 123.311 221.876 122.957 218.351 123.158L210.02 123.09L209.608 125.846H223.532C223.532 125.846 228.064 125.994 231.727 127.21C231.727 127.21 235.375 128.426 242.678 127.614L250.919 126.609L249.782 124.287Z" fill="#2F2E41"/>
<path opacity="0.2" d="M252.807 105.491C245.107 106.469 231.323 110.994 231.323 110.994C228.079 108.562 217.92 106.284 217.92 106.284C218.192 105.967 218.351 105.805 218.351 105.805L219.246 104.509C219.246 104.509 231.33 105.318 231.466 104.914C231.602 104.509 239.835 99.6265 239.835 99.6265L251.451 104.536C251.965 104.756 252.427 105.081 252.807 105.491V105.491Z" fill="black"/>
<path d="M228.751 105.151C228.596 105.189 228.441 105.227 228.283 105.25C225.541 105.733 222.712 104.543 220.45 102.229C218.456 100.135 217.055 97.5495 216.391 94.736C214.661 87.7232 217.384 81.0162 222.482 79.7586C227.58 78.5011 233.105 83.1574 234.839 90.1779C236.572 97.1983 233.849 103.898 228.751 105.151Z" fill="#F9B499"/>
<path d="M235.983 91.5374C236.319 91.5374 236.591 90.993 236.591 90.3214C236.591 89.6498 236.319 89.1053 235.983 89.1053C235.647 89.1053 235.375 89.6498 235.375 90.3214C235.375 90.993 235.647 91.5374 235.983 91.5374Z" stroke="#FF0000" stroke-width="0.75" stroke-miterlimit="10"/>
<path d="M240.647 88.6975C240.647 88.6975 247.131 92.2662 236.591 95.548C236.471 95.0978 236.404 94.6352 236.391 94.1696C236.372 93.5913 236.44 93.0135 236.591 92.4551L233.351 90.8085C233.351 90.8085 231.587 91.1295 230.639 89.1053C230.639 89.1053 227.267 89.1054 227.675 86.6695C227.675 86.6695 225.243 88.2934 224.431 86.2655C224.431 86.2655 220.771 88.8637 217.131 84.5245C217.131 84.5245 215.511 87.4815 215.998 92.4551C215.998 92.4551 213.6 94.3735 212.248 92.5986C211.941 92.1867 211.772 91.6885 211.764 91.1748C211.731 90.7469 211.829 90.3189 212.047 89.9488C212.264 89.5787 212.59 89.2843 212.98 89.1053C212.98 89.1053 210.046 88.0102 210.122 85.597C210.158 84.9749 210.342 84.3704 210.658 83.8334C210.658 83.8334 211.266 82.3228 213.536 82.9611C213.94 83.0821 214.333 83.2388 214.71 83.4293C214.71 83.4293 211.606 76.9112 215.994 72.6702C215.994 72.6702 223.222 65.1853 226.058 74.5094C226.058 74.5094 228.536 70.68 232.501 71.6317C232.791 71.701 233.075 71.7919 233.351 71.9036C233.351 71.9036 236.187 72.6589 235.783 77.2284C235.783 77.2284 239.431 74.1015 242.675 77.7496C242.675 77.7496 245.107 80.7292 242.675 83.8976C242.675 83.9014 243.891 86.6695 240.647 88.6975Z" fill="#2F2E41"/>
<path opacity="0.2" d="M217.524 83.7315C217.524 83.7315 216.308 79.7813 219.956 77.3493C219.956 77.3493 222.573 75.6423 226.183 77.8968C226.545 78.1324 226.889 78.3936 227.214 78.6786C228.32 79.6547 229.738 80.2049 231.213 80.2307C231.213 80.2307 235.367 80.0532 235.968 84.7813C235.968 84.7813 231.308 80.733 227.86 82.6892C227.86 82.6892 226.036 76.9414 221.172 78.5653C221.187 78.5502 218.351 79.3734 217.524 83.7315Z" fill="black"/>
<path opacity="0.2" d="M213.524 82.9611C211.553 83.3123 210.125 85.6046 210.125 85.6046C210.162 84.9825 210.345 84.3779 210.662 83.841C210.662 83.841 211.255 82.3266 213.524 82.9611Z" fill="black"/>
<path opacity="0.2" d="M240.647 88.6975C240.647 88.6975 247.131 92.2662 236.591 95.548C236.411 95.1122 236.342 94.6385 236.391 94.1696C236.42 93.9009 236.488 93.6378 236.591 93.3878L238.215 90.8085C239.431 90.0797 239.431 88.2934 239.431 88.2934C240.132 88.0144 240.738 87.5383 241.175 86.9226C241.498 86.4795 241.705 85.9628 241.778 85.4194C241.85 84.876 241.786 84.323 241.591 83.8108C240.749 81.6657 238.215 82.2662 238.215 82.2662C239.023 76.2239 235.375 78.1688 235.375 78.1688C234.997 72.6854 232.648 71.6921 232.501 71.6355C232.79 71.7047 233.075 71.7956 233.351 71.9074C233.351 71.9074 236.187 72.6627 235.783 77.2322C235.783 77.2322 239.431 74.1053 242.675 77.7533C242.675 77.7533 245.107 80.733 242.675 83.9014C242.675 83.9014 243.891 86.6695 240.647 88.6975Z" fill="black"/>
<path d="M243.483 100.454L233.351 109.053C231.727 110.355 230.915 109.374 230.915 109.374L230.465 108.667L228.283 105.25C235.983 103.494 235.329 93.3878 235.329 93.3878H236.591C236.387 94.8487 236.672 96.3361 237.403 97.6175C238.879 97.0246 240.802 97.0812 241.708 97.153C242.077 97.1787 242.442 97.2407 242.799 97.338C246.058 98.2444 243.483 100.454 243.483 100.454Z" fill="#F9B499"/>
<path d="M243.483 100.454L233.351 109.053C231.727 110.355 230.915 109.374 230.915 109.374L230.465 108.667C234.88 106.745 239.151 101.556 239.151 101.556C240.685 99.3093 238.154 97.9574 237.546 97.6741C237.536 97.6693 237.527 97.6615 237.521 97.6518C237.515 97.6421 237.511 97.6309 237.511 97.6194C237.511 97.6079 237.515 97.5966 237.521 97.5869C237.527 97.5772 237.536 97.5695 237.546 97.5646C239 97.0283 240.824 97.085 241.7 97.153C242.069 97.1787 242.435 97.2407 242.792 97.338C246.058 98.2444 243.483 100.454 243.483 100.454Z" fill="#F7A48B"/>
<path d="M228.283 105.25L229.442 107.066C229.442 107.066 236.485 103.09 235.107 97.1114C235.122 97.1114 234.567 103.966 228.283 105.25Z" fill="#F7A48B"/>
<path d="M220.783 104.914C223.275 105.299 225.678 106.132 227.875 107.372" stroke="#FF0000" stroke-width="0.75" stroke-miterlimit="10"/>
<path opacity="0.2" d="M262.992 134.638C262.992 137.75 260.915 137.75 260.915 137.75L255.25 139.778C252.724 140.62 251.685 140.492 251.281 140.329C251.198 140.298 251.11 140.285 251.022 140.292C250.933 140.299 250.848 140.326 250.771 140.371C250.903 140.276 251.406 139.819 250.737 138.482L248.615 135.303C248.583 135.254 248.561 135.199 248.551 135.142C248.54 135.084 248.542 135.025 248.556 134.968C248.57 134.912 248.596 134.858 248.631 134.812C248.666 134.765 248.711 134.727 248.762 134.698C248.824 134.663 248.895 134.645 248.966 134.646C249.034 134.645 249.1 134.66 249.161 134.691C249.221 134.721 249.274 134.765 249.314 134.819L252.006 138.569C252.006 138.569 252.414 140.189 257.671 137.757C257.671 137.75 262.229 135.982 262.992 134.638Z" fill="black"/>
<path opacity="0.2" d="M249.283 141.05C248.196 141.269 248.347 140.178 248.347 140.178C248.387 139.986 248.414 139.792 248.426 139.596C248.452 138.857 248.258 138.126 247.868 137.496C247.478 136.867 246.91 136.368 246.236 136.062C245.656 135.791 245.052 135.577 244.431 135.424C244.431 135.424 247.539 134.098 249.159 138.15C249.159 138.154 249.657 139.906 249.283 141.05Z" fill="black"/>
<path opacity="0.2" d="M250.379 131.266C250.379 131.266 245.092 133.486 243.275 135.42L240.129 136.141H224.321L209.827 135.726C208.48 127.181 210.162 118.434 214.582 110.997C214.695 110.997 217.935 111.809 221.179 123.161C221.179 123.161 224.397 135.174 229.487 134.642H238.358C238.358 134.642 246.323 134.917 246.323 129.646V121.534C246.323 121.534 246.568 118.354 247.867 120.352L251.995 128.83C251.995 128.83 252.807 130.454 250.379 131.266Z" fill="black"/>
<path opacity="0.2" d="M251.591 106.534C248.411 109.068 246.768 113.059 246.727 117.074C246.689 116.571 246.625 116.062 246.632 115.563C246.632 111.994 248.479 108.369 251.591 106.541V106.534Z" fill="black"/>
<path d="M236.591 131.466C236.537 131.464 236.487 131.441 236.45 131.402C236.413 131.363 236.393 131.312 236.394 131.258L236.783 119.094C236.783 111.054 238.8 105.306 238.823 105.25C238.832 105.225 238.845 105.202 238.863 105.182C238.881 105.163 238.902 105.147 238.926 105.136C238.95 105.125 238.976 105.118 239.002 105.117C239.028 105.116 239.055 105.12 239.08 105.129C239.13 105.147 239.171 105.184 239.194 105.232C239.218 105.28 239.221 105.335 239.204 105.386C239.185 105.442 237.188 111.126 237.188 119.102L236.783 131.269C236.782 131.32 236.761 131.369 236.725 131.405C236.69 131.441 236.642 131.463 236.591 131.466V131.466Z" fill="#2F2E41"/>
<path d="M226.459 132.682C226.405 132.68 226.355 132.657 226.318 132.618C226.281 132.579 226.261 132.528 226.262 132.474L226.666 120.718C226.656 116.43 226.997 112.148 227.686 107.916C227.69 107.89 227.7 107.865 227.714 107.842C227.729 107.82 227.747 107.801 227.769 107.786C227.791 107.771 227.815 107.76 227.841 107.754C227.867 107.749 227.894 107.749 227.92 107.753C227.973 107.764 228.02 107.794 228.05 107.839C228.081 107.883 228.092 107.938 228.082 107.991C227.4 112.202 227.063 116.46 227.074 120.726L226.666 132.489C226.663 132.542 226.64 132.592 226.601 132.627C226.563 132.663 226.511 132.683 226.459 132.682Z" fill="#2F2E41"/>
<g opacity="0.2">
<path d="M236.591 131.466C236.537 131.464 236.487 131.441 236.45 131.402C236.413 131.363 236.393 131.312 236.394 131.258L236.783 119.094C236.783 111.054 238.8 105.306 238.823 105.25C238.832 105.225 238.845 105.202 238.863 105.182C238.881 105.163 238.902 105.147 238.926 105.136C238.95 105.125 238.976 105.118 239.002 105.117C239.028 105.116 239.055 105.12 239.08 105.129C239.13 105.147 239.171 105.184 239.194 105.232C239.218 105.28 239.221 105.335 239.204 105.386C239.185 105.442 237.188 111.126 237.188 119.102L236.783 131.269C236.782 131.32 236.761 131.369 236.725 131.405C236.69 131.441 236.642 131.463 236.591 131.466V131.466Z" fill="black"/>
<path d="M226.459 132.682C226.405 132.68 226.355 132.657 226.318 132.618C226.281 132.579 226.261 132.528 226.262 132.474L226.666 120.718C226.656 116.43 226.997 112.148 227.686 107.916C227.69 107.89 227.7 107.865 227.714 107.842C227.729 107.82 227.747 107.801 227.769 107.786C227.791 107.771 227.815 107.76 227.841 107.754C227.867 107.749 227.894 107.749 227.92 107.753C227.973 107.764 228.02 107.794 228.05 107.839C228.081 107.883 228.092 107.938 228.082 107.991C227.4 112.202 227.063 116.46 227.074 120.726L226.666 132.489C226.663 132.542 226.64 132.592 226.601 132.627C226.563 132.663 226.511 132.683 226.459 132.682Z" fill="black"/>
</g>
<path d="M261.33 149.506C261.33 149.57 261.33 152.814 260.526 159.234L260.394 160.152C260.275 161.062 260.21 161.979 260.201 162.897C260.175 164.347 259.231 167.108 252.157 165.998C252.339 165.684 252.512 165.375 252.667 165.057C252.716 164.97 252.758 164.887 252.803 164.801C253.396 163.668 254.197 161.938 254.446 160.454C254.446 160.454 232.165 158.426 224.85 155.586C224.85 155.586 214.162 151.13 210.178 152.546L207.014 155.189C207.014 155.189 204.178 154.378 208.23 149.525L261.33 149.506Z" fill="#0071F2"/>
<path opacity="0.2" d="M254.431 160.454C254.431 160.454 259.642 160.801 259.45 163.097C259.428 163.309 259.363 163.514 259.258 163.699C259.154 163.884 259.012 164.046 258.842 164.174C258.147 164.706 256.481 165.416 252.743 164.887C253.452 163.469 254.017 161.984 254.431 160.454V160.454Z" fill="black"/>
<path opacity="0.2" d="M207.618 154.668C207.618 154.668 205.227 153.158 210.167 152.546L207.618 154.668Z" fill="black"/>
<path d="M254.431 160.454C254.05 161.961 253.499 163.419 252.788 164.801C252.743 164.887 252.701 164.97 252.652 165.057C252.569 165.22 252.486 165.367 252.418 165.492C252.35 165.616 252.24 165.828 252.142 165.998C247.119 174.85 236.447 182.78 232.104 185.775C231.531 186.168 231.055 186.685 230.71 187.288C230.365 187.891 230.162 188.564 230.114 189.257C229.23 203.173 222.81 215.178 222.81 215.178C221.447 217.131 219.412 218.071 217.146 218.373C209.933 219.348 200.106 213.962 200.106 213.962L205.393 198.962C209.85 182.346 214.31 177.478 214.31 177.478L224.321 156.662L224.838 155.586C232.135 158.426 254.431 160.454 254.431 160.454Z" fill="#2F2E41"/>
<path opacity="0.2" d="M254.431 160.454C254.051 161.961 253.499 163.419 252.788 164.801C252.743 164.887 252.701 164.97 252.652 165.057C252.569 165.22 252.486 165.367 252.418 165.492C252.35 165.616 252.24 165.828 252.142 165.998C247.12 174.85 236.447 182.78 232.104 185.775C231.531 186.168 231.055 186.685 230.71 187.288C230.366 187.891 230.162 188.564 230.114 189.257C229.231 203.173 222.811 215.178 222.811 215.178C221.447 217.131 219.412 218.071 217.146 218.373C224.699 208.66 228.955 187.029 228.955 187.029C228.619 181.995 243.483 168.955 243.483 168.955C249.148 163.29 241.863 161.658 241.863 161.658C235.341 160.628 226.787 157.561 224.317 156.651L224.835 155.575C232.135 158.426 254.431 160.454 254.431 160.454Z" fill="black"/>
<path d="M217.146 171.56L204.566 176.666L209.476 186.485C209.476 186.485 207.384 192.599 205.171 199.989C205.171 199.989 200.103 203.434 194.835 203.03C194.835 203.03 190.375 191.678 187.943 179.921C187.943 179.921 184.699 173.029 190.375 168.569L206.787 155.288L210.159 152.557C210.159 152.557 212.671 150.733 224.831 155.597L217.146 171.56Z" fill="#2F2E41"/>
<path d="M201.375 210.348L193.354 216.549C192.574 217.165 191.709 217.665 190.786 218.033C189.574 218.505 187.822 219.544 188.203 221.496C188.31 222.008 188.54 222.485 188.874 222.886C189.208 223.288 189.635 223.602 190.118 223.8C191.077 224.2 192.603 224.468 194.85 223.94L199.306 220.45L202.127 214.959L200.118 213.962L201.375 210.348Z" fill="#0071F2"/>
<path opacity="0.2" d="M201.375 210.348L193.354 216.549C192.574 217.165 191.709 217.665 190.786 218.033C189.574 218.505 187.822 219.544 188.203 221.496C188.31 222.008 188.54 222.485 188.874 222.886C189.208 223.288 189.635 223.602 190.118 223.8C191.077 224.2 192.603 224.468 194.85 223.94L199.306 220.45L202.127 214.959L200.118 213.962L201.375 210.348Z" fill="black"/>
<path opacity="0.2" d="M217.146 171.56L204.567 176.666L209.476 186.485C208.212 191.09 206.714 195.628 204.986 200.08C204.986 200.08 200.103 203.434 194.835 203.03C209.831 201.814 202.682 177.644 202.682 177.644C201.028 173.951 203.505 172.867 205.012 172.554C205.976 172.355 206.923 172.088 207.848 171.753L211.644 170.356C213.046 169.854 214.335 169.077 215.432 168.07C216.529 167.063 217.414 165.846 218.033 164.491C218.479 163.496 218.763 162.437 218.875 161.353C218.989 160.103 218.663 158.853 217.952 157.819C217.242 156.784 216.193 156.031 214.986 155.688C211.806 154.751 208.619 154.993 206.787 155.273L210.159 152.542C210.159 152.542 212.671 150.718 224.831 155.582L217.146 171.56Z" fill="black"/>
<path opacity="0.2" d="M188.139 220.983C191.16 222.678 194.876 222.463 197.958 221.077C198.407 220.885 198.838 220.647 199.291 220.45C198.887 220.726 198.471 220.998 198.045 221.255C195.023 222.965 190.952 223.181 188.135 220.983H188.139Z" fill="black"/>
<path opacity="0.2" d="M192.705 217.01C194.268 217.705 197.304 219.593 197.274 221.504C197.002 220.443 196.028 219.771 195.254 219.064C194.48 218.358 193.554 217.716 192.705 217.01V217.01Z" fill="black"/>
<path opacity="0.2" d="M194.838 215.397C196.005 215.564 196.923 216.621 197.274 217.701C196.432 216.927 195.764 216.088 194.838 215.397Z" fill="black"/>
<path opacity="0.2" d="M196.375 214.223C196.952 214.375 197.481 214.666 197.917 215.072C198.354 215.478 198.683 215.985 198.875 216.549C198.052 215.722 197.233 215.039 196.375 214.223Z" fill="black"/>
<path opacity="0.2" d="M198.082 212.89C199.044 213.441 199.765 214.331 200.107 215.386C199.313 214.658 198.631 213.817 198.082 212.89Z" fill="black"/>
<path d="M277.943 146.67H153.894V149.506H277.943V146.67Z" fill="#B3B3B3"/>
<path d="M277.943 146.67V149.506L291.723 138.562L291.734 136.137L277.943 146.67Z" fill="#999999"/>
<path d="M186.322 139.374H223.358L220.59 115.299C220.535 114.78 220.29 114.301 219.902 113.952C219.515 113.603 219.012 113.41 218.49 113.411H184.502C184.345 113.413 184.191 113.449 184.048 113.515C183.906 113.58 183.778 113.675 183.674 113.792C183.57 113.91 183.492 114.048 183.444 114.197C183.396 114.347 183.379 114.504 183.396 114.661L186.322 139.374Z" fill="#0071F2"/>
<path opacity="0.3" d="M223.362 139.374H186.322L183.388 114.676C183.372 114.519 183.388 114.361 183.437 114.211C183.485 114.062 183.564 113.924 183.668 113.806C183.772 113.689 183.9 113.594 184.043 113.529C184.186 113.463 184.341 113.428 184.498 113.426H218.486C219.008 113.426 219.511 113.618 219.899 113.967C220.286 114.316 220.531 114.795 220.586 115.314L223.362 139.374Z" fill="white"/>
<path opacity="0.3" d="M214.94 113.426L186.322 138.154L185.707 133.369L208.891 113.426H214.94Z" fill="white"/>
<path opacity="0.3" d="M189.842 139.374L219.88 113.951C220.267 114.303 220.518 114.78 220.59 115.299L220.737 116.56L193.891 139.374H189.842Z" fill="white"/>
<path d="M221.995 139.374H186.323V141.806H221.995V139.374Z" fill="#0071F2"/>
<path d="M233.135 139.374H221.999V141.806H233.135V139.374Z" fill="#0071F2"/>
<path opacity="0.2" d="M233.135 139.374H221.999V141.806H233.135V139.374Z" fill="black"/>
<path d="M153.082 142.614H170.699L183.381 135.22H168.233L153.082 142.614Z" fill="white"/>
<path d="M170.699 142.614H153.082V144.37H170.699V142.614Z" fill="#E6E6E6"/>
<path d="M183.381 135.22V137.433L170.699 144.37V142.614L183.381 135.22Z" fill="#CCCCCC"/>
<path opacity="0.1" d="M183.381 135.22V137.433L170.699 144.37V142.614L183.381 135.22Z" fill="black"/>
<path d="M243.271 135.416C243.271 135.416 238.188 136.122 235.363 139.978C235.363 139.978 231.587 143.433 235.295 142.822C235.295 142.822 235.473 144.589 238.464 143.399C238.464 143.399 238.981 144.649 242.24 142.822C242.24 142.822 245.507 140.994 248.343 140.178C248.347 140.182 249.548 135.514 243.271 135.416Z" fill="#F9B499"/>
<path d="M238.524 138.973C237.669 140.429 236.578 141.732 235.296 142.829C236.152 141.374 237.243 140.072 238.524 138.973V138.973Z" fill="#F7A48B"/>
<path d="M238.464 143.399C239.107 142.244 239.987 141.237 241.047 140.446C240.406 141.604 239.526 142.61 238.464 143.399V143.399Z" fill="#F7A48B"/>
<path d="M235.783 93.5616C237.126 93.5616 238.215 92.2005 238.215 90.5215C238.215 88.8426 237.126 87.4815 235.783 87.4815C234.439 87.4815 233.351 88.8426 233.351 90.5215C233.351 92.2005 234.439 93.5616 235.783 93.5616Z" fill="#F9B499"/>
<path d="M236.591 95.5442C236.591 95.5442 241.198 93.6824 245.749 94.1394C248.292 94.4168 250.633 95.6556 252.293 97.6024C254.125 99.7172 256.651 103.305 253.947 104.513C253.508 104.696 253.033 104.779 252.557 104.758C252.081 104.736 251.616 104.61 251.194 104.389C249.306 103.448 244.427 101.779 233.147 109.166L243.483 100.454C243.483 100.454 245.93 98.0064 242.161 97.2323C241.835 97.1687 241.504 97.1371 241.172 97.1379C239.899 97.1593 238.633 97.3201 237.395 97.6175C237.395 97.6175 236.591 96.3184 236.591 95.5442Z" fill="#0071F2"/>
<path opacity="0.3" d="M236.591 95.5442C236.591 95.5442 241.198 93.6824 245.749 94.1394C248.292 94.4168 250.633 95.6556 252.293 97.6024C254.125 99.7172 256.651 103.305 253.947 104.513C253.508 104.696 253.033 104.779 252.557 104.758C252.081 104.736 251.616 104.61 251.194 104.389C249.306 103.448 244.427 101.779 233.147 109.166L243.483 100.454C243.483 100.454 245.93 98.0064 242.161 97.2323C241.835 97.1687 241.504 97.1371 241.172 97.1379C239.899 97.1593 238.633 97.3201 237.395 97.6175C237.395 97.6175 236.591 96.3184 236.591 95.5442Z" fill="white"/>
<path opacity="0.3" d="M249.159 97.6175C246.995 100.242 244.068 102.172 241.134 103.845C240.7 104.064 240.273 104.298 239.835 104.509C242.992 102.278 246.255 100.201 249.159 97.6175Z" fill="white"/>
<path opacity="0.3" d="M252.807 99.2375C250.99 101.25 248.294 102.33 245.666 102.769C248.109 101.798 250.673 100.79 252.807 99.2375Z" fill="white"/>
<path d="M230.915 109.374C229.242 108.369 222.848 106.806 220.688 106.296C220.267 106.206 219.841 106.147 219.412 106.118C217.595 105.948 217.935 104.925 217.935 104.925C217.935 103.305 220.443 102.251 220.443 102.251C222.709 104.555 225.533 105.744 228.275 105.272L230.915 109.374Z" fill="#0071F2"/>
<path opacity="0.3" d="M230.915 109.374C229.242 108.369 222.848 106.806 220.688 106.296C220.267 106.206 219.841 106.147 219.412 106.118C217.595 105.948 217.935 104.925 217.935 104.925C217.935 103.305 220.443 102.251 220.443 102.251C222.709 104.555 225.533 105.744 228.275 105.272L230.915 109.374Z" fill="white"/>
<path d="M202.742 129.642C204.421 129.642 205.782 128.281 205.782 126.602C205.782 124.923 204.421 123.562 202.742 123.562C201.063 123.562 199.702 124.923 199.702 126.602C199.702 128.281 201.063 129.642 202.742 129.642Z" fill="white"/>
<path d="M201.817 37.5039H103.071C102.078 37.5039 101.273 38.3087 101.273 39.3015V93.8637C101.273 94.8564 102.078 95.6613 103.071 95.6613H201.817C202.81 95.6613 203.615 94.8564 203.615 93.8637V39.3015C203.615 38.3087 202.81 37.5039 201.817 37.5039Z" fill="#E6E6E6"/>
<path d="M203.615 39.3015V46.1898H101.273V39.3015C101.273 38.8248 101.462 38.3675 101.8 38.0304C102.137 37.6933 102.594 37.5039 103.071 37.5039H201.817C202.294 37.5039 202.751 37.6933 203.088 38.0304C203.425 38.3675 203.615 38.8248 203.615 39.3015V39.3015Z" fill="#0071F2"/>
<path d="M197.006 40.1474H159.997C159.058 40.1474 158.297 40.9083 158.297 41.8468C158.297 42.7854 159.058 43.5463 159.997 43.5463H197.006C197.945 43.5463 198.705 42.7854 198.705 41.8468C198.705 40.9083 197.945 40.1474 197.006 40.1474Z" fill="white"/>
<path d="M106.749 42.791C107.479 42.791 108.071 42.1992 108.071 41.4692C108.071 40.7392 107.479 40.1474 106.749 40.1474C106.019 40.1474 105.427 40.7392 105.427 41.4692C105.427 42.1992 106.019 42.791 106.749 42.791Z" fill="white"/>
<path d="M113.169 42.791C113.899 42.791 114.491 42.1992 114.491 41.4692C114.491 40.7392 113.899 40.1474 113.169 40.1474C112.439 40.1474 111.847 40.7392 111.847 41.4692C111.847 42.1992 112.439 42.791 113.169 42.791Z" fill="white"/>
<path d="M119.967 42.791C120.697 42.791 121.288 42.1992 121.288 41.4692C121.288 40.7392 120.697 40.1474 119.967 40.1474C119.237 40.1474 118.645 40.7392 118.645 41.4692C118.645 42.1992 119.237 42.791 119.967 42.791Z" fill="white"/>
<path d="M139.038 58.4632C141.227 58.4632 143.003 56.6879 143.003 54.498C143.003 52.308 141.227 50.5327 139.038 50.5327C136.848 50.5327 135.072 52.308 135.072 54.498C135.072 56.6879 136.848 58.4632 139.038 58.4632Z" fill="#0071F2"/>
<path d="M138.939 54.2978C139.432 54.2978 139.831 53.8988 139.831 53.4066C139.831 52.9143 139.432 52.5153 138.939 52.5153C138.447 52.5153 138.048 52.9143 138.048 53.4066C138.048 53.8988 138.447 54.2978 138.939 54.2978Z" fill="white"/>
<path d="M137.512 56.2691H140.59C140.619 56.2699 140.649 56.2639 140.676 56.2516C140.702 56.2392 140.726 56.2208 140.745 56.1978C140.763 56.1748 140.776 56.1477 140.783 56.1189C140.789 56.09 140.789 56.06 140.782 56.0312C140.72 55.6257 140.504 55.2598 140.179 55.0089C139.854 54.7581 139.446 54.6414 139.038 54.683C139.038 54.683 137.787 54.5055 137.319 56.0123C137.31 56.0422 137.309 56.0738 137.314 56.1045C137.32 56.1351 137.332 56.1641 137.351 56.189C137.37 56.214 137.394 56.2342 137.422 56.2481C137.45 56.262 137.481 56.2692 137.512 56.2691V56.2691Z" fill="white"/>
<path d="M137.149 89.4301C139.339 89.4301 141.115 87.6548 141.115 85.4648C141.115 83.2749 139.339 81.4996 137.149 81.4996C134.959 81.4996 133.184 83.2749 133.184 85.4648C133.184 87.6548 134.959 89.4301 137.149 89.4301Z" fill="#0071F2"/>
<path d="M137.051 85.2647C137.543 85.2647 137.942 84.8657 137.942 84.3735C137.942 83.8812 137.543 83.4822 137.051 83.4822C136.559 83.4822 136.16 83.8812 136.16 84.3735C136.16 84.8657 136.559 85.2647 137.051 85.2647Z" fill="white"/>
<path d="M135.624 87.236H138.701C138.731 87.2368 138.76 87.2308 138.787 87.2185C138.814 87.2061 138.838 87.1877 138.857 87.1647C138.875 87.1416 138.888 87.1146 138.895 87.0857C138.901 87.0569 138.901 87.0269 138.894 86.9981C138.831 86.5926 138.615 86.2267 138.291 85.9758C137.966 85.725 137.557 85.6083 137.149 85.6499C137.149 85.6499 135.899 85.4724 135.431 86.9792C135.422 87.0091 135.42 87.0407 135.426 87.0713C135.432 87.102 135.444 87.131 135.463 87.1559C135.482 87.1809 135.506 87.2011 135.534 87.215C135.562 87.2289 135.592 87.2361 135.624 87.236Z" fill="white"/>
<path d="M178.313 60.3514C180.503 60.3514 182.278 58.5761 182.278 56.3862C182.278 54.1962 180.503 52.4209 178.313 52.4209C176.123 52.4209 174.347 54.1962 174.347 56.3862C174.347 58.5761 176.123 60.3514 178.313 60.3514Z" fill="#0071F2"/>
<path d="M178.214 56.186C178.707 56.186 179.106 55.787 179.106 55.2948C179.106 54.8026 178.707 54.4035 178.214 54.4035C177.722 54.4035 177.323 54.8026 177.323 55.2948C177.323 55.787 177.722 56.186 178.214 56.186Z" fill="white"/>
<path d="M176.787 58.1573H179.865C179.894 58.1582 179.924 58.1522 179.951 58.1398C179.978 58.1274 180.001 58.109 180.02 58.086C180.039 58.063 180.052 58.036 180.058 58.0071C180.065 57.9782 180.064 57.9482 180.057 57.9194C179.995 57.514 179.779 57.148 179.454 56.8972C179.129 56.6463 178.721 56.5296 178.313 56.5712C178.313 56.5712 177.063 56.3937 176.594 57.9005C176.586 57.9304 176.584 57.962 176.589 57.9927C176.595 58.0234 176.608 58.0523 176.626 58.0773C176.645 58.1022 176.669 58.1224 176.697 58.1363C176.725 58.1502 176.756 58.1574 176.787 58.1573V58.1573Z" fill="white"/>
<path d="M191.908 73.1914C194.098 73.1914 195.873 71.4161 195.873 69.2261C195.873 67.0361 194.098 65.2608 191.908 65.2608C189.718 65.2608 187.943 67.0361 187.943 69.2261C187.943 71.4161 189.718 73.1914 191.908 73.1914Z" fill="#0071F2"/>
<path d="M191.81 69.026C192.302 69.026 192.701 68.6269 192.701 68.1347C192.701 67.6425 192.302 67.2435 191.81 67.2435C191.317 67.2435 190.918 67.6425 190.918 68.1347C190.918 68.6269 191.317 69.026 191.81 69.026Z" fill="white"/>
<path d="M190.382 70.9973H193.46C193.49 70.9981 193.519 70.9921 193.546 70.9797C193.573 70.9674 193.596 70.9489 193.615 70.9259C193.634 70.9029 193.647 70.8759 193.653 70.847C193.66 70.8181 193.66 70.7881 193.653 70.7594C193.59 70.3539 193.374 69.988 193.049 69.7371C192.725 69.4862 192.316 69.3696 191.908 69.4112C191.908 69.4112 190.658 69.2337 190.19 70.7405C190.181 70.7704 190.179 70.8019 190.185 70.8326C190.19 70.8633 190.203 70.8923 190.221 70.9172C190.24 70.9422 190.264 70.9624 190.292 70.9763C190.32 70.9902 190.351 70.9974 190.382 70.9973V70.9973Z" fill="white"/>
<path d="M176.424 91.696C178.823 91.696 180.767 89.7516 180.767 87.3531C180.767 84.9545 178.823 83.0101 176.424 83.0101C174.026 83.0101 172.082 84.9545 172.082 87.3531C172.082 89.7516 174.026 91.696 176.424 91.696Z" fill="#0071F2"/>
<path d="M176.315 87.1378C176.855 87.1378 177.293 86.6999 177.293 86.1597C177.293 85.6195 176.855 85.1816 176.315 85.1816C175.775 85.1816 175.337 85.6195 175.337 86.1597C175.337 86.6999 175.775 87.1378 176.315 87.1378Z" fill="white"/>
<path d="M174.751 89.3055H178.124C178.156 89.3064 178.188 89.2998 178.218 89.2863C178.247 89.2727 178.273 89.2526 178.294 89.2274C178.314 89.2022 178.329 89.1726 178.336 89.141C178.343 89.1093 178.343 89.0765 178.335 89.0449C178.265 88.6015 178.028 88.2016 177.673 87.9272C177.318 87.6527 176.871 87.5243 176.424 87.5683C176.424 87.5683 175.054 87.3757 174.536 89.026C174.527 89.059 174.525 89.0938 174.532 89.1275C174.538 89.1612 174.552 89.193 174.573 89.2202C174.594 89.2474 174.621 89.2693 174.652 89.2841C174.683 89.2989 174.717 89.3062 174.751 89.3055Z" fill="white"/>
<path d="M117.512 73.569C120.119 73.569 122.232 71.4556 122.232 68.8485C122.232 66.2414 120.119 64.1279 117.512 64.1279C114.905 64.1279 112.791 66.2414 112.791 68.8485C112.791 71.4556 114.905 73.569 117.512 73.569Z" fill="#0071F2"/>
<path d="M117.395 68.6106C117.981 68.6106 118.456 68.1354 118.456 67.5494C118.456 66.9633 117.981 66.4882 117.395 66.4882C116.809 66.4882 116.333 66.9633 116.333 67.5494C116.333 68.1354 116.809 68.6106 117.395 68.6106Z" fill="white"/>
<path d="M115.695 70.9708H119.359C119.394 70.9718 119.429 70.9646 119.461 70.9499C119.493 70.9352 119.521 70.9133 119.543 70.8859C119.566 70.8585 119.581 70.8264 119.589 70.792C119.597 70.7577 119.597 70.7219 119.589 70.6876C119.518 70.2029 119.262 69.7646 118.875 69.4652C118.487 69.1657 117.999 69.0285 117.512 69.0826C117.512 69.0826 116.024 68.8711 115.469 70.6649C115.458 70.7003 115.456 70.7377 115.462 70.7741C115.469 70.8105 115.484 70.8449 115.506 70.8745C115.528 70.9042 115.556 70.9284 115.589 70.9451C115.622 70.9618 115.658 70.9706 115.695 70.9708V70.9708Z" fill="white"/>
<path d="M187.943 68.6596H158.675V69.0373H187.943V68.6596Z" fill="#2F2E41"/>
<path d="M143.569 68.6596H122.232V69.0373H143.569V68.6596Z" fill="#2F2E41"/>
<path d="M142.542 56.4428L142.274 56.7088L147.7 62.1772L147.968 61.9112L142.542 56.4428Z" fill="#2F2E41"/>
<path d="M146.71 74.9585L139.688 82.8896L139.971 83.14L146.993 75.2088L146.71 74.9585Z" fill="#2F2E41"/>
<path d="M174.447 58.0051L158.211 66.3274L158.384 66.6635L174.619 58.3412L174.447 58.0051Z" fill="#2F2E41"/>
<path d="M156.653 73.9648L156.434 74.2727L172.413 85.6286L172.632 85.3208L156.653 73.9648Z" fill="#2F2E41"/>
<path d="M151.122 76.4014C155.294 76.4014 158.675 73.0198 158.675 68.8485C158.675 64.6771 155.294 61.2956 151.122 61.2956C146.951 61.2956 143.569 64.6771 143.569 68.8485C143.569 73.0198 146.951 76.4014 151.122 76.4014Z" fill="#0071F2"/>
<path d="M150.933 68.4708C151.872 68.4708 152.633 67.71 152.633 66.7714C152.633 65.8329 151.872 65.072 150.933 65.072C149.995 65.072 149.234 65.8329 149.234 66.7714C149.234 67.71 149.995 68.4708 150.933 68.4708Z" fill="white"/>
<path d="M148.214 72.2473H154.079C154.136 72.2486 154.193 72.2369 154.245 72.2132C154.296 72.1894 154.342 72.1543 154.379 72.1103C154.415 72.0663 154.441 72.0147 154.454 71.9593C154.468 71.9039 154.469 71.8461 154.457 71.7903C154.264 70.9217 153.569 69.1242 151.13 69.2261C151.13 69.2261 148.747 68.8862 147.859 71.7563C147.842 71.8125 147.837 71.872 147.847 71.9301C147.856 71.9882 147.879 72.0433 147.914 72.0909C147.948 72.1386 147.993 72.1776 148.045 72.2048C148.098 72.2319 148.155 72.2465 148.214 72.2473V72.2473Z" fill="white"/>
</svg>
